<?xml version="1.0" standalone="no"?>
<!DOCTYPE svg PUBLIC "-//W3C//DTD SVG 1.0//EN" "http://www.w3.org/TR/2001/REC-SVG-20010904/DTD/svg10.dtd"[]>
<svg xmlns="http://www.w3.org/2000/svg" xmlns:xlink="http://www.w3.org/1999/xlink" id="body_-465085442_68802" width="1359.4814" height="874.26672">
  <g transform="matrix(95.500798 0 0 -95.500798 -755.05356 1960.1505)">
    <g>
      <path d="M17.05021 15.94769L17.039118 16.265325L17.005896 16.581411L16.950706 16.894411L16.873816 17.202798L16.775602 17.50507L16.656542 17.799755L16.517216 18.085416L16.358302 18.360663L16.180575 18.624154L15.9849 18.874606L15.772232 19.110798L15.543606 19.33158L15.300136 19.535876L15.043007 19.72269L14.773474 19.891113L14.492849 20.040325L14.202499 20.169597L13.903838 20.2783L13.598323 20.365905L13.28744 20.431985L12.972705 20.476219L12.655652 20.498389L12.337824 20.498389L12.02077 20.476219L11.706036 20.431985L11.395153 20.365905L11.089637 20.2783L10.790977 20.169597L10.500627 20.040325L10.220002 19.891113L9.9504689 19.72269L9.6933407 19.535876L9.4498705 19.33158L9.2212442 19.110798L9.008576 18.874606L8.8129016 18.624154L8.6351746 18.360663L8.4762606 18.085416L8.336934 17.799755L8.2178739 17.50507L8.1196598 17.202798L8.0427703 16.894411L7.9875797 16.581411L7.954358 16.265325L7.9432658 15.94769L7.954358 15.630056L7.9875797 15.31397L8.0427703 15.00097L8.1196598 14.692583L8.2178739 14.390311L8.336934 14.095626L8.4762606 13.809965L8.6351746 13.534718L8.8129016 13.271226L9.008576 13.020775L9.2212442 12.784583L9.4498705 12.563801L9.6933407 12.359505L9.9504689 12.172691L10.220002 12.004268L10.500627 11.855056L10.790977 11.725784L11.089637 11.617081L11.395153 11.529476L11.706036 11.463396L12.02077 11.419162L12.337824 11.396992L12.655652 11.396992L12.972705 11.419162L13.28744 11.463396L13.598323 11.529476L13.903838 11.617081L14.202499 11.725784L14.492849 11.855056L14.773474 12.004268L15.043007 12.172691L15.300136 12.359505L15.543606 12.563801L15.772232 12.784583L15.9849 13.020775L16.180575 13.271226L16.358302 13.534718L16.517216 13.809965L16.656542 14.095626L16.775602 14.390311L16.873816 14.692583L16.950706 15.00097L17.005896 15.31397L17.05021 15.94769" stroke="#000000" stroke-width="0.0074083148" stroke-linecap="round" stroke-linejoin="round" fill="none" />
      <path d="M15.245424 17.207693L20.263667 17.207693L20.263667 13.881287L15.245424 13.881287L15.245424 17.207693" stroke="#000000" stroke-width="0.0074083148" stroke-linecap="round" stroke-linejoin="round" fill="none" />
      <path d="M19.5828 15.141289L22.10453 15.141289L22.10453 12.369284L19.5828 12.369284L19.5828 15.141289" stroke="#000000" stroke-width="0.0074083148" stroke-linecap="round" stroke-linejoin="round" fill="none" />
    </g>
  </g>
</svg>